<?xml version="1.0" standalone="no"?>
<svg xmlns:xlink="http://www.w3.org/1999/xlink" id="wave" style="transform:rotate(180deg); transition: 0.3s" viewBox="0 0 1440 190" version="1.1" xmlns="http://www.w3.org/2000/svg"><defs><linearGradient id="sw-gradient-0" x1="0" x2="0" y1="1" y2="0"><stop stop-color="rgba(240, 249, 255, 1)" offset="0%"/><stop stop-color="rgba(240, 249, 255, 1)" offset="100%"/></linearGradient></defs><path style="transform:translate(0, 0px); opacity:1" fill="url(#sw-gradient-0)" d="M0,38L40,53.8C80,70,160,101,240,95C320,89,400,44,480,34.8C560,25,640,51,720,72.8C800,95,880,114,960,110.8C1040,108,1120,82,1200,60.2C1280,38,1360,19,1440,25.3C1520,32,1600,63,1680,91.8C1760,120,1840,146,1920,142.5C2000,139,2080,108,2160,107.7C2240,108,2320,139,2400,155.2C2480,171,2560,171,2640,145.7C2720,120,2800,70,2880,53.8C2960,38,3040,57,3120,69.7C3200,82,3280,89,3360,101.3C3440,114,3520,133,3600,133C3680,133,3760,114,3840,88.7C3920,63,4000,32,4080,22.2C4160,13,4240,25,4320,47.5C4400,70,4480,101,4560,104.5C4640,108,4720,82,4800,76C4880,70,4960,82,5040,82.3C5120,82,5200,70,5280,63.3C5360,57,5440,57,5520,57C5600,57,5680,57,5720,57L5760,57L5760,190L5720,190C5680,190,5600,190,5520,190C5440,190,5360,190,5280,190C5200,190,5120,190,5040,190C4960,190,4880,190,4800,190C4720,190,4640,190,4560,190C4480,190,4400,190,4320,190C4240,190,4160,190,4080,190C4000,190,3920,190,3840,190C3760,190,3680,190,3600,190C3520,190,3440,190,3360,190C3280,190,3200,190,3120,190C3040,190,2960,190,2880,190C2800,190,2720,190,2640,190C2560,190,2480,190,2400,190C2320,190,2240,190,2160,190C2080,190,2000,190,1920,190C1840,190,1760,190,1680,190C1600,190,1520,190,1440,190C1360,190,1280,190,1200,190C1120,190,1040,190,960,190C880,190,800,190,720,190C640,190,560,190,480,190C400,190,320,190,240,190C160,190,80,190,40,190L0,190Z"/></svg>