<?xml version="1.0" standalone="no"?>
<svg xmlns:xlink="http://www.w3.org/1999/xlink" id="wave" style="transform:rotate(180deg); transition: 0.3s" viewBox="0 0 1440 190" version="1.1" xmlns="http://www.w3.org/2000/svg"><defs><linearGradient id="sw-gradient-0" x1="0" x2="0" y1="1" y2="0"><stop stop-color="rgba(240, 249, 255, 1)" offset="0%"/><stop stop-color="rgba(240, 249, 255, 1)" offset="100%"/></linearGradient></defs><path style="transform:translate(0, 0px); opacity:1" fill="url(#sw-gradient-0)" d="M0,76L40,91.8C80,108,160,139,240,133C320,127,400,82,480,76C560,70,640,101,720,98.2C800,95,880,57,960,57C1040,57,1120,95,1200,114C1280,133,1360,133,1440,126.7C1520,120,1600,108,1680,110.8C1760,114,1840,133,1920,117.2C2000,101,2080,51,2160,50.7C2240,51,2320,101,2400,110.8C2480,120,2560,89,2640,91.8C2720,95,2800,133,2880,129.8C2960,127,3040,82,3120,79.2C3200,76,3280,114,3360,114C3440,114,3520,76,3600,57C3680,38,3760,38,3840,50.7C3920,63,4000,89,4080,107.7C4160,127,4240,139,4320,145.7C4400,152,4480,152,4560,142.5C4640,133,4720,114,4800,117.2C4880,120,4960,146,5040,133C5120,120,5200,70,5280,63.3C5360,57,5440,95,5520,120.3C5600,146,5680,158,5720,164.7L5760,171L5760,190L5720,190C5680,190,5600,190,5520,190C5440,190,5360,190,5280,190C5200,190,5120,190,5040,190C4960,190,4880,190,4800,190C4720,190,4640,190,4560,190C4480,190,4400,190,4320,190C4240,190,4160,190,4080,190C4000,190,3920,190,3840,190C3760,190,3680,190,3600,190C3520,190,3440,190,3360,190C3280,190,3200,190,3120,190C3040,190,2960,190,2880,190C2800,190,2720,190,2640,190C2560,190,2480,190,2400,190C2320,190,2240,190,2160,190C2080,190,2000,190,1920,190C1840,190,1760,190,1680,190C1600,190,1520,190,1440,190C1360,190,1280,190,1200,190C1120,190,1040,190,960,190C880,190,800,190,720,190C640,190,560,190,480,190C400,190,320,190,240,190C160,190,80,190,40,190L0,190Z"/></svg>