<?xml version="1.0" standalone="no"?>
<svg xmlns:xlink="http://www.w3.org/1999/xlink" id="wave" style="transform:rotate(0deg); transition: 0.3s" viewBox="0 0 1440 190" version="1.1" xmlns="http://www.w3.org/2000/svg"><defs><linearGradient id="sw-gradient-0" x1="0" x2="0" y1="1" y2="0"><stop stop-color="rgba(240, 249, 255, 1)" offset="0%"/><stop stop-color="rgba(240, 249, 255, 1)" offset="100%"/></linearGradient></defs><path style="transform:translate(0, 0px); opacity:1" fill="url(#sw-gradient-0)" d="M0,19L40,34.8C80,51,160,82,240,91.8C320,101,400,89,480,82.3C560,76,640,76,720,79.2C800,82,880,89,960,91.8C1040,95,1120,95,1200,79.2C1280,63,1360,32,1440,28.5C1520,25,1600,51,1680,60.2C1760,70,1840,63,1920,72.8C2000,82,2080,108,2160,114C2240,120,2320,108,2400,114C2480,120,2560,146,2640,142.5C2720,139,2800,108,2880,85.5C2960,63,3040,51,3120,50.7C3200,51,3280,63,3360,57C3440,51,3520,25,3600,41.2C3680,57,3760,114,3840,123.5C3920,133,4000,95,4080,79.2C4160,63,4240,70,4320,69.7C4400,70,4480,63,4560,60.2C4640,57,4720,57,4800,72.8C4880,89,4960,120,5040,114C5120,108,5200,63,5280,53.8C5360,44,5440,70,5520,72.8C5600,76,5680,57,5720,47.5L5760,38L5760,190L5720,190C5680,190,5600,190,5520,190C5440,190,5360,190,5280,190C5200,190,5120,190,5040,190C4960,190,4880,190,4800,190C4720,190,4640,190,4560,190C4480,190,4400,190,4320,190C4240,190,4160,190,4080,190C4000,190,3920,190,3840,190C3760,190,3680,190,3600,190C3520,190,3440,190,3360,190C3280,190,3200,190,3120,190C3040,190,2960,190,2880,190C2800,190,2720,190,2640,190C2560,190,2480,190,2400,190C2320,190,2240,190,2160,190C2080,190,2000,190,1920,190C1840,190,1760,190,1680,190C1600,190,1520,190,1440,190C1360,190,1280,190,1200,190C1120,190,1040,190,960,190C880,190,800,190,720,190C640,190,560,190,480,190C400,190,320,190,240,190C160,190,80,190,40,190L0,190Z"/></svg>