<?xml version="1.0" standalone="no"?>
<svg xmlns:xlink="http://www.w3.org/1999/xlink" id="wave" style="transform:rotate(0deg); transition: 0.3s" viewBox="0 0 1440 190" version="1.1" xmlns="http://www.w3.org/2000/svg"><defs><linearGradient id="sw-gradient-0" x1="0" x2="0" y1="1" y2="0"><stop stop-color="rgba(240, 249, 255, 1)" offset="0%"/><stop stop-color="rgba(240, 249, 255, 1)" offset="100%"/></linearGradient></defs><path style="transform:translate(0, 0px); opacity:1" fill="url(#sw-gradient-0)" d="M0,19L40,28.5C80,38,160,57,240,79.2C320,101,400,127,480,133C560,139,640,127,720,117.2C800,108,880,101,960,104.5C1040,108,1120,120,1200,117.2C1280,114,1360,95,1440,72.8C1520,51,1600,25,1680,31.7C1760,38,1840,76,1920,95C2000,114,2080,114,2160,107.7C2240,101,2320,89,2400,82.3C2480,76,2560,76,2640,63.3C2720,51,2800,25,2880,19C2960,13,3040,25,3120,53.8C3200,82,3280,127,3360,136.2C3440,146,3520,120,3600,117.2C3680,114,3760,133,3840,133C3920,133,4000,114,4080,104.5C4160,95,4240,95,4320,107.7C4400,120,4480,146,4560,145.7C4640,146,4720,120,4800,107.7C4880,95,4960,95,5040,91.8C5120,89,5200,82,5280,79.2C5360,76,5440,76,5520,69.7C5600,63,5680,51,5720,44.3L5760,38L5760,190L5720,190C5680,190,5600,190,5520,190C5440,190,5360,190,5280,190C5200,190,5120,190,5040,190C4960,190,4880,190,4800,190C4720,190,4640,190,4560,190C4480,190,4400,190,4320,190C4240,190,4160,190,4080,190C4000,190,3920,190,3840,190C3760,190,3680,190,3600,190C3520,190,3440,190,3360,190C3280,190,3200,190,3120,190C3040,190,2960,190,2880,190C2800,190,2720,190,2640,190C2560,190,2480,190,2400,190C2320,190,2240,190,2160,190C2080,190,2000,190,1920,190C1840,190,1760,190,1680,190C1600,190,1520,190,1440,190C1360,190,1280,190,1200,190C1120,190,1040,190,960,190C880,190,800,190,720,190C640,190,560,190,480,190C400,190,320,190,240,190C160,190,80,190,40,190L0,190Z"/></svg>