<?xml version="1.0" standalone="no"?>
<svg xmlns:xlink="http://www.w3.org/1999/xlink" id="wave" style="transform:rotate(0deg); transition: 0.3s" viewBox="0 0 1440 190" version="1.1" xmlns="http://www.w3.org/2000/svg"><defs><linearGradient id="sw-gradient-0" x1="0" x2="0" y1="1" y2="0"><stop stop-color="rgba(240, 249, 255, 1)" offset="0%"/><stop stop-color="rgba(240, 249, 255, 1)" offset="100%"/></linearGradient></defs><path style="transform:translate(0, 0px); opacity:1" fill="url(#sw-gradient-0)" d="M0,19L40,28.5C80,38,160,57,240,72.8C320,89,400,101,480,95C560,89,640,63,720,57C800,51,880,63,960,63.3C1040,63,1120,51,1200,44.3C1280,38,1360,38,1440,41.2C1520,44,1600,51,1680,63.3C1760,76,1840,95,1920,95C2000,95,2080,76,2160,63.3C2240,51,2320,44,2400,44.3C2480,44,2560,51,2640,50.7C2720,51,2800,44,2880,41.2C2960,38,3040,38,3120,60.2C3200,82,3280,127,3360,136.2C3440,146,3520,120,3600,95C3680,70,3760,44,3840,31.7C3920,19,4000,19,4080,22.2C4160,25,4240,32,4320,34.8C4400,38,4480,38,4560,53.8C4640,70,4720,101,4800,101.3C4880,101,4960,70,5040,53.8C5120,38,5200,38,5280,47.5C5360,57,5440,76,5520,95C5600,114,5680,133,5720,142.5L5760,152L5760,190L5720,190C5680,190,5600,190,5520,190C5440,190,5360,190,5280,190C5200,190,5120,190,5040,190C4960,190,4880,190,4800,190C4720,190,4640,190,4560,190C4480,190,4400,190,4320,190C4240,190,4160,190,4080,190C4000,190,3920,190,3840,190C3760,190,3680,190,3600,190C3520,190,3440,190,3360,190C3280,190,3200,190,3120,190C3040,190,2960,190,2880,190C2800,190,2720,190,2640,190C2560,190,2480,190,2400,190C2320,190,2240,190,2160,190C2080,190,2000,190,1920,190C1840,190,1760,190,1680,190C1600,190,1520,190,1440,190C1360,190,1280,190,1200,190C1120,190,1040,190,960,190C880,190,800,190,720,190C640,190,560,190,480,190C400,190,320,190,240,190C160,190,80,190,40,190L0,190Z"/></svg>